<svg xmlns="http://www.w3.org/2000/svg" viewBox="0 0 1280 720" role="img" aria-labelledby="title desc"><title id="title">AI Procurement Cost-Savings Advisor</title><desc id="desc">Executive procurement dashboard with spend, delivery, supplier and savings metrics.</desc><defs><linearGradient id="bg" x1="0" x2="1" y1="0" y2="1"><stop stop-color="#0b1020"/><stop offset="1" stop-color="#15273b"/></linearGradient><linearGradient id="accent" x1="0" x2="1"><stop stop-color="#d7b65f"/><stop offset="1" stop-color="#f5df95"/></linearGradient></defs><rect width="1280" height="720" rx="24" fill="url(#bg)"/><rect x="32" y="30" width="1216" height="58" rx="12" fill="#ffffff" fill-opacity=".06"/><text x="64" y="66" fill="#f6f3e8" font-family="Arial,sans-serif" font-size="26" font-weight="700">AI Procurement Advisor</text><text x="1026" y="66" fill="#d7b65f" font-family="Arial,sans-serif" font-size="17">Executive Overview</text><g font-family="Arial,sans-serif"><g fill="#ffffff" fill-opacity=".08"><rect x="44" y="116" width="226" height="126" rx="16"/><rect x="286" y="116" width="226" height="126" rx="16"/><rect x="528" y="116" width="226" height="126" rx="16"/><rect x="770" y="116" width="226" height="126" rx="16"/><rect x="1012" y="116" width="226" height="126" rx="16"/></g><g fill="#aab7c7" font-size="14"><text x="64" y="148">TOTAL SPEND</text><text x="306" y="148">AVG DELIVERY DELAY</text><text x="548" y="148">ON-TIME DELIVERY</text><text x="790" y="148">ACTIVE SUPPLIERS</text><text x="1032" y="148">POTENTIAL SAVINGS</text></g><g fill="#f7f5ef" font-size="29" font-weight="700"><text x="64" y="196">$915.5k</text><text x="306" y="196">1.6 days</text><text x="548" y="196">38.3%</text><text x="790" y="196">100</text><text x="1032" y="196">$131.7k</text></g><rect x="44" y="274" width="740" height="390" rx="16" fill="#ffffff" fill-opacity=".06"/><text x="68" y="314" fill="#f6f3e8" font-size="20" font-weight="700">Monthly spend and delivery delay</text><g stroke="#ffffff" stroke-opacity=".12"><path d="M68 600H752M68 510H752M68 420H752M68 330H752"/></g><path d="M82 560 L145 500 L207 525 L269 442 L331 478 L393 396 L455 430 L517 365 L579 408 L641 340 L710 382" fill="none" stroke="url(#accent)" stroke-width="7" stroke-linecap="round" stroke-linejoin="round"/><rect x="812" y="274" width="426" height="390" rx="16" fill="#ffffff" fill-opacity=".06"/><text x="838" y="314" fill="#f6f3e8" font-size="20" font-weight="700">Spend by category</text><g fill="#d7b65f"><rect x="840" y="368" width="255" height="26" rx="13"/><rect x="840" y="423" width="250" height="26" rx="13" fill-opacity=".8"/><rect x="840" y="478" width="195" height="26" rx="13" fill-opacity=".65"/><rect x="840" y="533" width="188" height="26" rx="13" fill-opacity=".45"/></g><g fill="#c7d1de" font-size="16"><text x="1112" y="387">Food</text><text x="1107" y="442">Beauty</text><text x="1052" y="497">Sport</text><text x="1045" y="552">Apparel</text></g></g></svg>
